
CASCADE Topology V1, (c) Matra-Datavision
Locations 27
1
1.000000000000000 0.000000000000000 0.000000000000000 0.000000000000000 
0.000000000000000 1.000000000000000 0.000000000000000 0.000000000000000 
0.000000000000000 0.000000000000000 1.000000000000000 0.000000000000000 
1
1.000000000000000 0.000000000000000 0.000000000000000 0.000000000000000 
0.000000000000000 1.000000000000000 0.000000000000000 0.000000000000000 
0.000000000000000 0.000000000000000 1.000000000000000 0.000000000000000 
1
1.000000000000000 0.000000000000000 0.000000000000000 0.000000000000000 
0.000000000000000 1.000000000000000 0.000000000000000 0.000000000000000 
0.000000000000000 0.000000000000000 1.000000000000000 0.000000000000000 
1
1.000000000000000 0.000000000000000 0.000000000000000 0.000000000000000 
0.000000000000000 1.000000000000000 0.000000000000000 0.000000000000000 
0.000000000000000 0.000000000000000 1.000000000000000 0.000000000000000 
2  2 1 3 1 4 -1 0
1
1.000000000000000 0.000000000000000 0.000000000000000 0.000000000000000 
0.000000000000000 1.000000000000000 0.000000000000000 0.000000000000000 
0.000000000000000 0.000000000000000 1.000000000000000 15.000000000000000 
2  2 1 3 1 4 -1 6 1 0
1
1.000000000000000 0.000000000000000 0.000000000000000 0.000000000000000 
0.000000000000000 1.000000000000000 0.000000000000000 0.000000000000000 
0.000000000000000 0.000000000000000 1.000000000000000 0.000000000000000 
1
1.000000000000000 0.000000000000000 0.000000000000000 0.000000000000000 
0.000000000000000 1.000000000000000 0.000000000000000 0.000000000000000 
0.000000000000000 0.000000000000000 1.000000000000000 0.000000000000000 
2  8 1 9 -1 2 -1 0
1
1.000000000000000 0.000000000000000 0.000000000000000 0.000000000000000 
0.000000000000000 1.000000000000000 0.000000000000000 0.000000000000000 
0.000000000000000 0.000000000000000 1.000000000000000 10.000000000000000 
2  11 -1 8 1 9 -1 2 -1 0
1
1.000000000000000 0.000000000000000 0.000000000000000 0.000000000000000 
0.000000000000000 1.000000000000000 0.000000000000000 0.000000000000000 
0.000000000000000 0.000000000000000 1.000000000000000 0.000000000000000 
1
1.000000000000000 0.000000000000000 0.000000000000000 0.000000000000000 
0.000000000000000 1.000000000000000 0.000000000000000 0.000000000000000 
0.000000000000000 0.000000000000000 1.000000000000000 0.000000000000000 
2  13 1 14 -1 2 -1 0
1
1.000000000000000 0.000000000000000 0.000000000000000 0.000000000000000 
0.000000000000000 1.000000000000000 0.000000000000000 0.000000000000000 
0.000000000000000 0.000000000000000 1.000000000000000 10.000000000000000 
2  16 -1 13 1 14 -1 2 -1 0
1
1.000000000000000 0.000000000000000 0.000000000000000 0.000000000000000 
0.000000000000000 1.000000000000000 0.000000000000000 0.000000000000000 
0.000000000000000 0.000000000000000 1.000000000000000 0.000000000000000 
1
1.000000000000000 0.000000000000000 0.000000000000000 0.000000000000000 
0.000000000000000 1.000000000000000 0.000000000000000 0.000000000000000 
0.000000000000000 0.000000000000000 1.000000000000000 0.000000000000000 
2  18 1 19 -1 2 -1 0
1
1.000000000000000 0.000000000000000 0.000000000000000 0.000000000000000 
0.000000000000000 1.000000000000000 0.000000000000000 0.000000000000000 
0.000000000000000 0.000000000000000 1.000000000000000 10.000000000000000 
2  21 -1 18 1 19 -1 2 -1 0
2  4 1 3 -1 2 -1 0
2  6 -1 4 1 3 -1 2 -1 0
2  4 -1 0
2  2 1 3 1 0
2  4 -1 6 1 0
Curve2ds 134
1 0.00000000000000010 0.00000000000000000 0.00000000000000000 -1.00000000000000000 
1 1.57079632679489634 0.00000000000000000 0.00000000000000000 -1.00000000000000000 
1 0.00000000000000000 0.00000000000000000 1.00000000000000000 0.00000000000000000 
1 0.00000000000000000 -10.00000000000000000 1.00000000000000000 0.00000000000000000 
1 0.00000000000000000 0.00000000000000000 1.00000000000000000 0.00000000000000000 
1 0.00000000000000000 -10.00000000000000000 1.00000000000000000 0.00000000000000000 
1 0.00000000000000000 0.00000000000000000 1.00000000000000000 0.00000000000000000 
1 0.00000000000000000 -10.00000000000000000 1.00000000000000000 0.00000000000000000 
1 0.00000000000000000 0.00000000000000000 1.00000000000000000 0.00000000000000000 
1 0.00000000000000000 -15.00000000000000000 1.00000000000000000 0.00000000000000000 
1 4.71238898038468967 0.00000000000000000 0.00000000000000000 -1.00000000000000000 
1 4.06888787159140541 0.00000000000000000 0.00000000000000000 -1.00000000000000000 
1 0.92729521800161230 0.00000000000000000 0.00000000000000000 -1.00000000000000000 
1 0.00000000000000000 0.00000000000000000 1.00000000000000000 0.00000000000000000 
1 0.00000000000000000 -10.00000000000000000 1.00000000000000000 0.00000000000000000 
1 0.00000000000000000 0.00000000000000000 1.00000000000000000 0.00000000000000000 
1 0.00000000000000000 -10.00000000000000000 1.00000000000000000 0.00000000000000000 
1 0.00000000000000000 0.00000000000000000 1.00000000000000000 0.00000000000000000 
1 0.00000000000000000 -10.00000000000000000 1.00000000000000000 0.00000000000000000 
1 0.00000000000000000 0.00000000000000000 1.00000000000000000 0.00000000000000000 
1 0.00000000000000000 -15.00000000000000000 1.00000000000000000 0.00000000000000000 
1 0.00000000000000000 0.00000000000000000 1.00000000000000000 0.00000000000000000 
1 0.00000000000000000 -10.00000000000000000 1.00000000000000000 0.00000000000000000 
1 0.00000000000000000 0.00000000000000000 1.00000000000000000 0.00000000000000000 
1 0.00000000000000000 -10.00000000000000000 1.00000000000000000 0.00000000000000000 
1 0.00000000000000000 0.00000000000000000 1.00000000000000000 0.00000000000000000 
1 0.00000000000000000 -10.00000000000000000 1.00000000000000000 0.00000000000000000 
1 0.00000000000000000 0.00000000000000000 1.00000000000000000 0.00000000000000000 
1 0.00000000000000000 -15.00000000000000000 1.00000000000000000 0.00000000000000000 
1 0.00000000000000000 0.00000000000000000 1.00000000000000000 0.00000000000000000 
1 0.00000000000000000 -10.00000000000000000 1.00000000000000000 0.00000000000000000 
1 0.00000000000000000 0.00000000000000000 1.00000000000000000 0.00000000000000000 
1 0.00000000000000000 -10.00000000000000000 1.00000000000000000 0.00000000000000000 
1 0.00000000000000000 0.00000000000000000 1.00000000000000000 0.00000000000000000 
1 0.00000000000000000 -10.00000000000000000 1.00000000000000000 0.00000000000000000 
1 0.00000000000000000 0.00000000000000000 1.00000000000000000 0.00000000000000000 
1 0.00000000000000000 -10.00000000000000000 1.00000000000000000 0.00000000000000000 
1 0.00000000000000000 0.00000000000000000 1.00000000000000000 0.00000000000000000 
1 0.00000000000000000 -10.00000000000000000 1.00000000000000000 0.00000000000000000 
1 0.00000000000000000 0.00000000000000000 1.00000000000000000 0.00000000000000000 
1 0.00000000000000000 -10.00000000000000000 1.00000000000000000 0.00000000000000000 
1 0.00000000000000000 0.00000000000000000 1.00000000000000000 0.00000000000000000 
1 0.00000000000000000 -15.00000000000000000 1.00000000000000000 0.00000000000000000 
1 0.00000000000000000 0.00000000000000000 1.00000000000000000 0.00000000000000000 
1 0.00000000000000000 -15.00000000000000000 1.00000000000000000 0.00000000000000000 
1 0.00000000000000000 0.00000000000000000 1.00000000000000000 0.00000000000000000 
1 0.00000000000000000 -10.00000000000000000 1.00000000000000000 0.00000000000000000 
1 0.00000000000000000 0.00000000000000000 1.00000000000000000 0.00000000000000000 
1 0.00000000000000000 -10.00000000000000000 1.00000000000000000 0.00000000000000000 
1 0.00000000000000000 0.00000000000000000 1.00000000000000000 0.00000000000000000 
1 0.00000000000000000 -10.00000000000000000 1.00000000000000000 0.00000000000000000 
1 0.00000000000000000 0.00000000000000000 1.00000000000000000 0.00000000000000000 
1 0.00000000000000000 -15.00000000000000000 1.00000000000000000 0.00000000000000000 
1 0.00000000000000000 0.00000000000000000 1.00000000000000000 0.00000000000000000 
1 0.00000000000000000 -10.00000000000000000 1.00000000000000000 0.00000000000000000 
1 0.00000000000000000 0.00000000000000000 1.00000000000000000 0.00000000000000000 
1 0.00000000000000000 -10.00000000000000000 1.00000000000000000 0.00000000000000000 
1 0.00000000000000000 0.00000000000000000 1.00000000000000000 0.00000000000000000 
1 0.00000000000000000 -10.00000000000000000 1.00000000000000000 0.00000000000000000 
1 0.00000000000000000 0.00000000000000000 1.00000000000000000 0.00000000000000000 
1 0.00000000000000000 -15.00000000000000000 1.00000000000000000 0.00000000000000000 
1 0.00000000000000000 0.00000000000000000 1.00000000000000000 0.00000000000000000 
1 0.00000000000000000 -10.00000000000000000 1.00000000000000000 0.00000000000000000 
1 0.00000000000000000 0.00000000000000000 1.00000000000000000 0.00000000000000000 
1 0.00000000000000000 -10.00000000000000000 1.00000000000000000 0.00000000000000000 
1 0.00000000000000000 0.00000000000000000 1.00000000000000000 0.00000000000000000 
1 0.00000000000000000 -10.00000000000000000 1.00000000000000000 0.00000000000000000 
1 0.00000000000000000 0.00000000000000000 1.00000000000000000 0.00000000000000000 
1 0.00000000000000000 -15.00000000000000000 1.00000000000000000 0.00000000000000000 
1 0.00000000000000000 0.00000000000000000 1.00000000000000000 0.00000000000000000 
1 0.00000000000000000 -10.00000000000000000 1.00000000000000000 0.00000000000000000 
1 0.00000000000000000 0.00000000000000000 1.00000000000000000 0.00000000000000000 
1 0.00000000000000000 -10.00000000000000000 1.00000000000000000 0.00000000000000000 
1 0.00000000000000000 0.00000000000000000 1.00000000000000000 0.00000000000000000 
1 0.00000000000000000 -10.00000000000000000 1.00000000000000000 0.00000000000000000 
1 0.00000000000000000 0.00000000000000000 1.00000000000000000 0.00000000000000000 
1 0.00000000000000000 -15.00000000000000000 1.00000000000000000 0.00000000000000000 
1 0.00000000000000000 0.00000000000000000 1.00000000000000000 0.00000000000000000 
1 0.00000000000000000 -10.00000000000000000 1.00000000000000000 0.00000000000000000 
1 0.00000000000000000 0.00000000000000000 1.00000000000000000 0.00000000000000000 
1 0.00000000000000000 -10.00000000000000000 1.00000000000000000 0.00000000000000000 
1 0.00000000000000000 0.00000000000000000 1.00000000000000000 0.00000000000000000 
1 0.00000000000000000 -10.00000000000000000 1.00000000000000000 0.00000000000000000 
1 0.00000000000000000 0.00000000000000000 1.00000000000000000 0.00000000000000000 
1 0.00000000000000000 -15.00000000000000000 1.00000000000000000 0.00000000000000000 
1 0.00000000000000000 0.00000000000000000 1.00000000000000000 0.00000000000000000 
1 0.00000000000000000 -10.00000000000000000 1.00000000000000000 0.00000000000000000 
1 0.00000000000000000 0.00000000000000000 1.00000000000000000 0.00000000000000000 
1 0.00000000000000000 -10.00000000000000000 1.00000000000000000 0.00000000000000000 
1 0.00000000000000000 0.00000000000000000 1.00000000000000000 0.00000000000000000 
1 0.00000000000000000 -10.00000000000000000 1.00000000000000000 0.00000000000000000 
1 0.00000000000000000 0.00000000000000000 1.00000000000000000 0.00000000000000000 
1 0.00000000000000000 -10.00000000000000000 1.00000000000000000 0.00000000000000000 
1 0.00000000000000000 0.00000000000000000 1.00000000000000000 0.00000000000000000 
1 0.00000000000000000 -10.00000000000000000 1.00000000000000000 0.00000000000000000 
1 0.00000000000000000 0.00000000000000000 1.00000000000000000 0.00000000000000000 
1 0.00000000000000000 -10.00000000000000000 1.00000000000000000 0.00000000000000000 
1 0.00000000000000000 0.00000000000000000 1.00000000000000000 0.00000000000000000 
1 0.00000000000000000 -15.00000000000000000 1.00000000000000000 0.00000000000000000 
1 0.00000000000000000 0.00000000000000000 1.00000000000000000 0.00000000000000000 
1 0.00000000000000000 -15.00000000000000000 1.00000000000000000 0.00000000000000000 
1 0.00000000000000000 0.00000000000000000 1.00000000000000000 0.00000000000000000 
1 0.00000000000000000 -10.00000000000000000 1.00000000000000000 0.00000000000000000 
1 0.00000000000000000 0.00000000000000000 1.00000000000000000 0.00000000000000000 
1 0.00000000000000000 -10.00000000000000000 1.00000000000000000 0.00000000000000000 
1 0.00000000000000000 0.00000000000000000 1.00000000000000000 0.00000000000000000 
1 0.00000000000000000 -10.00000000000000000 1.00000000000000000 0.00000000000000000 
1 0.00000000000000000 0.00000000000000000 1.00000000000000000 0.00000000000000000 
1 0.00000000000000000 -15.00000000000000000 1.00000000000000000 0.00000000000000000 
1 0.00000000000000000 0.00000000000000000 1.00000000000000000 0.00000000000000000 
1 0.00000000000000000 -10.00000000000000000 1.00000000000000000 0.00000000000000000 
1 0.00000000000000000 0.00000000000000000 1.00000000000000000 0.00000000000000000 
1 0.00000000000000000 -10.00000000000000000 1.00000000000000000 0.00000000000000000 
1 0.00000000000000000 0.00000000000000000 1.00000000000000000 0.00000000000000000 
1 0.00000000000000000 -10.00000000000000000 1.00000000000000000 0.00000000000000000 
1 0.00000000000000000 0.00000000000000000 1.00000000000000000 0.00000000000000000 
1 0.00000000000000000 -15.00000000000000000 1.00000000000000000 0.00000000000000000 
1 4.71238898038468967 0.00000000000000000 0.00000000000000000 -1.00000000000000000 
1 2.21429743558818082 0.00000000000000000 0.00000000000000000 -1.00000000000000000 
1 5.35589008917797393 0.00000000000000000 0.00000000000000000 -1.00000000000000000 
1 2.21429743558818082 0.00000000000000000 0.00000000000000000 -1.00000000000000000 
1 1.57079632679489656 0.00000000000000000 0.00000000000000000 -1.00000000000000000 
1 3.14159265358979312 0.00000000000000000 0.00000000000000000 -1.00000000000000000 
1 3.14159265358979312 0.00000000000000000 0.00000000000000000 -1.00000000000000000 
1 4.71238898038468967 0.00000000000000000 0.00000000000000000 -1.00000000000000000 
1 1.57079632679489700 0.00000000000000000 0.00000000000000000 -1.00000000000000000 
1 0.92729521800161263 0.00000000000000000 0.00000000000000000 -1.00000000000000000 
1 4.06888787159140541 0.00000000000000000 0.00000000000000000 -1.00000000000000000 
1 1.57079632679489700 0.00000000000000000 0.00000000000000000 -1.00000000000000000 
1 5.35589008917797393 0.00000000000000000 0.00000000000000000 -1.00000000000000000 
1 2.21429743558818082 0.00000000000000000 0.00000000000000000 -1.00000000000000000 
1 5.35589008917797393 0.00000000000000000 0.00000000000000000 -1.00000000000000000 
1 4.71238898038468967 0.00000000000000000 0.00000000000000000 -1.00000000000000000 
1 6.28318530717958623 0.00000000000000000 0.00000000000000000 -1.00000000000000000 
Curves 36
1 42.50000000000000000 9.00000000000000178 0.00000000000000000 0.00000000000000000 0.00000000000000000 1.00000000000000000 
1 37.50000000000000000 14.00000000000000178 0.00000000000000000 0.00000000000000000 0.00000000000000000 1.00000000000000000 
2 37.50000000000000000 9.00000000000000178 0.00000000000000000 0.00000000000000000 0.00000000000000000 1.00000000000000000 1.00000000000000000 0.00000000000000000 -0.00000000000000000 -0.00000000000000000 1.00000000000000000 0.00000000000000000 5.00000000000000000
1 17.99999999999999289 14.00000000000000000 0.00000000000000000 0.00000000000000000 0.00000000000000000 1.00000000000000000 
1 37.50000000000000000 14.00000000000000178 0.00000000000000000 -1.00000000000000000 0.00000000000000000 0.00000000000000000 
1 11.99999999999999822 16.00000000000000000 0.00000000000000000 0.00000000000000000 0.00000000000000000 1.00000000000000000 
2 17.99999999999999645 24.00000000000000000 0.00000000000000000 0.00000000000000000 0.00000000000000000 1.00000000000000000 1.00000000000000000 0.00000000000000000 -0.00000000000000000 -0.00000000000000000 1.00000000000000000 0.00000000000000000 10.00000000000000000
1 42.50000000000000000 0.00000000000000000 0.00000000000000000 0.00000000000000000 1.00000000000000000 0.00000000000000000 
2 0.00000000000000000 0.00000000000000000 0.00000000000000000 0.00000000000000000 0.00000000000000000 1.00000000000000000 1.00000000000000000 0.00000000000000000 -0.00000000000000000 -0.00000000000000000 1.00000000000000000 0.00000000000000000 20.00000000000000000
2 0.00000000000000000 0.00000000000000000 0.00000000000000000 0.00000000000000000 0.00000000000000000 1.00000000000000000 1.00000000000000000 0.00000000000000000 -0.00000000000000000 -0.00000000000000000 1.00000000000000000 0.00000000000000000 20.00000000000000000
2 -17.99999999999999645 24.00000000000000000 0.00000000000000000 0.00000000000000000 0.00000000000000000 1.00000000000000000 1.00000000000000000 0.00000000000000000 -0.00000000000000000 -0.00000000000000000 1.00000000000000000 0.00000000000000000 10.00000000000000000
1 -37.50000000000000000 14.00000000000000178 0.00000000000000000 1.00000000000000000 0.00000000000000000 0.00000000000000000 
2 -37.50000000000000000 9.00000000000000178 0.00000000000000000 0.00000000000000000 0.00000000000000000 1.00000000000000000 1.00000000000000000 0.00000000000000000 -0.00000000000000000 -0.00000000000000000 1.00000000000000000 0.00000000000000000 5.00000000000000000
1 -42.50000000000000000 0.00000000000000000 0.00000000000000000 0.00000000000000000 -1.00000000000000000 0.00000000000000000 
2 -37.50000000000000000 -9.00000000000000178 0.00000000000000000 0.00000000000000000 0.00000000000000000 1.00000000000000000 1.00000000000000000 0.00000000000000000 -0.00000000000000000 -0.00000000000000000 1.00000000000000000 0.00000000000000000 5.00000000000000000
1 -37.50000000000000000 -14.00000000000000000 0.00000000000000000 1.00000000000000000 0.00000000000000000 0.00000000000000000 
2 -17.99999999999999645 -24.00000000000000000 0.00000000000000000 0.00000000000000000 0.00000000000000000 1.00000000000000000 1.00000000000000000 0.00000000000000000 -0.00000000000000000 -0.00000000000000000 1.00000000000000000 0.00000000000000000 10.00000000000000000
2 0.00000000000000000 0.00000000000000000 0.00000000000000000 0.00000000000000000 0.00000000000000000 1.00000000000000000 1.00000000000000000 0.00000000000000000 -0.00000000000000000 -0.00000000000000000 1.00000000000000000 0.00000000000000000 20.00000000000000000
2 0.00000000000000000 0.00000000000000000 0.00000000000000000 0.00000000000000000 0.00000000000000000 1.00000000000000000 1.00000000000000000 0.00000000000000000 -0.00000000000000000 -0.00000000000000000 1.00000000000000000 0.00000000000000000 20.00000000000000000
2 17.99999999999999645 -24.00000000000000000 0.00000000000000000 0.00000000000000000 0.00000000000000000 1.00000000000000000 1.00000000000000000 0.00000000000000000 -0.00000000000000000 -0.00000000000000000 1.00000000000000000 0.00000000000000000 10.00000000000000000
1 37.50000000000000000 -14.00000000000000178 0.00000000000000000 -1.00000000000000000 0.00000000000000000 0.00000000000000000 
2 37.50000000000000000 -9.00000000000000178 0.00000000000000000 0.00000000000000000 0.00000000000000000 1.00000000000000000 1.00000000000000000 0.00000000000000000 -0.00000000000000000 -0.00000000000000000 1.00000000000000000 0.00000000000000000 5.00000000000000000
1 -18.00000000000000000 14.00000000000000000 0.00000000000000000 0.00000000000000000 0.00000000000000000 1.00000000000000000 
1 -11.99999999999999822 16.00000000000000000 0.00000000000000000 0.00000000000000000 0.00000000000000000 1.00000000000000000 
1 -37.50000000000000000 14.00000000000000178 0.00000000000000000 0.00000000000000000 0.00000000000000000 1.00000000000000000 
1 -42.50000000000000000 9.00000000000000178 0.00000000000000000 0.00000000000000000 0.00000000000000000 1.00000000000000000 
1 -42.50000000000000000 -9.00000000000000178 0.00000000000000000 0.00000000000000000 0.00000000000000000 1.00000000000000000 
1 -37.50000000000000000 -14.00000000000000000 0.00000000000000000 0.00000000000000000 0.00000000000000000 1.00000000000000000 
1 -18.00000000000000000 -14.00000000000000000 0.00000000000000000 0.00000000000000000 0.00000000000000000 1.00000000000000000 
1 -12.00000000000000000 -15.99999999999999645 0.00000000000000000 0.00000000000000000 0.00000000000000000 1.00000000000000000 
1 17.99999999999999289 -14.00000000000000000 0.00000000000000000 0.00000000000000000 0.00000000000000000 1.00000000000000000 
1 11.99999999999999645 -16.00000000000000000 0.00000000000000000 0.00000000000000000 0.00000000000000000 1.00000000000000000 
1 37.50000000000000000 -14.00000000000000178 0.00000000000000000 0.00000000000000000 0.00000000000000000 1.00000000000000000 
1 42.50000000000000000 -9.00000000000000355 0.00000000000000000 0.00000000000000000 0.00000000000000000 1.00000000000000000 
1 -42.50000000000000000 0.00000000000000000 15.00000000000000000 0.00000000000000000 1.00000000000000000 0.00000000000000000 
1 42.50000000000000000 0.00000000000000000 15.00000000000000000 0.00000000000000000 -1.00000000000000000 0.00000000000000000 
Polygon3D 0
PolygonOnTriangulations 0
Surfaces 59
2 37.50000000000000000 9.00000000000000178 0.00000000000000000 -0.00000000000000000 -0.00000000000000000 -1.00000000000000000 1.00000000000000000 0.00000000000000000 0.00000000000000000 -0.00000000000000000 1.00000000000000000 -0.00000000000000000 5.00000000000000000
1 42.50000000000000000 0.00000000000000000 0.00000000000000000 -1.00000000000000000 0.00000000000000000 0.00000000000000000 0.00000000000000000 1.00000000000000000 0.00000000000000000 0.00000000000000000 0.00000000000000000 -1.00000000000000000 
1 37.50000000000000000 14.00000000000000178 0.00000000000000000 0.00000000000000000 -1.00000000000000000 0.00000000000000000 -1.00000000000000000 0.00000000000000000 0.00000000000000000 -0.00000000000000000 -0.00000000000000000 -1.00000000000000000 
2 37.50000000000000000 9.00000000000000178 0.00000000000000000 -0.00000000000000000 -0.00000000000000000 -1.00000000000000000 1.00000000000000000 0.00000000000000000 0.00000000000000000 -0.00000000000000000 1.00000000000000000 -0.00000000000000000 5.00000000000000000
2 37.50000000000000000 9.00000000000000178 0.00000000000000000 -0.00000000000000000 -0.00000000000000000 -1.00000000000000000 1.00000000000000000 0.00000000000000000 0.00000000000000000 -0.00000000000000000 1.00000000000000000 -0.00000000000000000 5.00000000000000000
2 37.50000000000000000 9.00000000000000178 0.00000000000000000 -0.00000000000000000 -0.00000000000000000 -1.00000000000000000 1.00000000000000000 0.00000000000000000 0.00000000000000000 -0.00000000000000000 1.00000000000000000 -0.00000000000000000 5.00000000000000000
2 17.99999999999999645 24.00000000000000000 0.00000000000000000 -0.00000000000000000 -0.00000000000000000 -1.00000000000000000 1.00000000000000000 0.00000000000000000 0.00000000000000000 -0.00000000000000000 1.00000000000000000 -0.00000000000000000 10.00000000000000000
2 0.00000000000000000 0.00000000000000000 0.00000000000000000 -0.00000000000000000 -0.00000000000000000 -1.00000000000000000 1.00000000000000000 0.00000000000000000 0.00000000000000000 -0.00000000000000000 1.00000000000000000 -0.00000000000000000 20.00000000000000000
2 17.99999999999999645 24.00000000000000000 0.00000000000000000 -0.00000000000000000 -0.00000000000000000 -1.00000000000000000 1.00000000000000000 0.00000000000000000 0.00000000000000000 -0.00000000000000000 1.00000000000000000 -0.00000000000000000 10.00000000000000000
2 17.99999999999999645 24.00000000000000000 0.00000000000000000 -0.00000000000000000 -0.00000000000000000 -1.00000000000000000 1.00000000000000000 0.00000000000000000 0.00000000000000000 -0.00000000000000000 1.00000000000000000 -0.00000000000000000 10.00000000000000000
2 17.99999999999999645 24.00000000000000000 0.00000000000000000 -0.00000000000000000 -0.00000000000000000 -1.00000000000000000 1.00000000000000000 0.00000000000000000 0.00000000000000000 -0.00000000000000000 1.00000000000000000 -0.00000000000000000 10.00000000000000000
1 0.00000000000000077 -0.00000000000000006 0.00000000000000000 0.00000000000000000 0.00000000000000000 1.00000000000000000 1.00000000000000000 0.00000000000000000 -0.00000000000000000 -0.00000000000000000 1.00000000000000000 0.00000000000000000 
2 0.00000000000000000 0.00000000000000000 0.00000000000000000 -0.00000000000000000 -0.00000000000000000 -1.00000000000000000 1.00000000000000000 0.00000000000000000 0.00000000000000000 -0.00000000000000000 1.00000000000000000 -0.00000000000000000 20.00000000000000000
2 0.00000000000000000 0.00000000000000000 0.00000000000000000 -0.00000000000000000 -0.00000000000000000 -1.00000000000000000 1.00000000000000000 0.00000000000000000 0.00000000000000000 -0.00000000000000000 1.00000000000000000 -0.00000000000000000 20.00000000000000000
2 0.00000000000000000 0.00000000000000000 0.00000000000000000 -0.00000000000000000 -0.00000000000000000 -1.00000000000000000 1.00000000000000000 0.00000000000000000 0.00000000000000000 -0.00000000000000000 1.00000000000000000 -0.00000000000000000 20.00000000000000000
2 0.00000000000000000 0.00000000000000000 0.00000000000000000 -0.00000000000000000 -0.00000000000000000 -1.00000000000000000 1.00000000000000000 0.00000000000000000 0.00000000000000000 -0.00000000000000000 1.00000000000000000 -0.00000000000000000 20.00000000000000000
2 0.00000000000000000 0.00000000000000000 0.00000000000000000 -0.00000000000000000 -0.00000000000000000 -1.00000000000000000 1.00000000000000000 0.00000000000000000 0.00000000000000000 -0.00000000000000000 1.00000000000000000 -0.00000000000000000 20.00000000000000000
2 0.00000000000000000 0.00000000000000000 0.00000000000000000 -0.00000000000000000 -0.00000000000000000 -1.00000000000000000 1.00000000000000000 0.00000000000000000 0.00000000000000000 -0.00000000000000000 1.00000000000000000 -0.00000000000000000 20.00000000000000000
2 0.00000000000000000 0.00000000000000000 0.00000000000000000 -0.00000000000000000 -0.00000000000000000 -1.00000000000000000 1.00000000000000000 0.00000000000000000 0.00000000000000000 -0.00000000000000000 1.00000000000000000 -0.00000000000000000 20.00000000000000000
2 -17.99999999999999645 24.00000000000000000 0.00000000000000000 -0.00000000000000000 -0.00000000000000000 -1.00000000000000000 1.00000000000000000 0.00000000000000000 0.00000000000000000 -0.00000000000000000 1.00000000000000000 -0.00000000000000000 10.00000000000000000
2 -17.99999999999999645 24.00000000000000000 0.00000000000000000 -0.00000000000000000 -0.00000000000000000 -1.00000000000000000 1.00000000000000000 0.00000000000000000 0.00000000000000000 -0.00000000000000000 1.00000000000000000 -0.00000000000000000 10.00000000000000000
2 -17.99999999999999645 24.00000000000000000 0.00000000000000000 -0.00000000000000000 -0.00000000000000000 -1.00000000000000000 1.00000000000000000 0.00000000000000000 0.00000000000000000 -0.00000000000000000 1.00000000000000000 -0.00000000000000000 10.00000000000000000
2 -17.99999999999999645 24.00000000000000000 0.00000000000000000 -0.00000000000000000 -0.00000000000000000 -1.00000000000000000 1.00000000000000000 0.00000000000000000 0.00000000000000000 -0.00000000000000000 1.00000000000000000 -0.00000000000000000 10.00000000000000000
2 -37.50000000000000000 9.00000000000000178 0.00000000000000000 -0.00000000000000000 -0.00000000000000000 -1.00000000000000000 1.00000000000000000 0.00000000000000000 0.00000000000000000 -0.00000000000000000 1.00000000000000000 -0.00000000000000000 5.00000000000000000
2 -37.50000000000000000 9.00000000000000178 0.00000000000000000 -0.00000000000000000 -0.00000000000000000 -1.00000000000000000 1.00000000000000000 0.00000000000000000 0.00000000000000000 -0.00000000000000000 1.00000000000000000 -0.00000000000000000 5.00000000000000000
2 -37.50000000000000000 9.00000000000000178 0.00000000000000000 -0.00000000000000000 -0.00000000000000000 -1.00000000000000000 1.00000000000000000 0.00000000000000000 0.00000000000000000 -0.00000000000000000 1.00000000000000000 -0.00000000000000000 5.00000000000000000
2 -37.50000000000000000 9.00000000000000178 0.00000000000000000 -0.00000000000000000 -0.00000000000000000 -1.00000000000000000 1.00000000000000000 0.00000000000000000 0.00000000000000000 -0.00000000000000000 1.00000000000000000 -0.00000000000000000 5.00000000000000000
2 -37.50000000000000000 -9.00000000000000178 0.00000000000000000 -0.00000000000000000 -0.00000000000000000 -1.00000000000000000 1.00000000000000000 0.00000000000000000 0.00000000000000000 -0.00000000000000000 1.00000000000000000 -0.00000000000000000 5.00000000000000000
2 -37.50000000000000000 -9.00000000000000178 0.00000000000000000 -0.00000000000000000 -0.00000000000000000 -1.00000000000000000 1.00000000000000000 0.00000000000000000 0.00000000000000000 -0.00000000000000000 1.00000000000000000 -0.00000000000000000 5.00000000000000000
2 -37.50000000000000000 -9.00000000000000178 0.00000000000000000 -0.00000000000000000 -0.00000000000000000 -1.00000000000000000 1.00000000000000000 0.00000000000000000 0.00000000000000000 -0.00000000000000000 1.00000000000000000 -0.00000000000000000 5.00000000000000000
2 -37.50000000000000000 -9.00000000000000178 0.00000000000000000 -0.00000000000000000 -0.00000000000000000 -1.00000000000000000 1.00000000000000000 0.00000000000000000 0.00000000000000000 -0.00000000000000000 1.00000000000000000 -0.00000000000000000 5.00000000000000000
2 -17.99999999999999645 -24.00000000000000000 0.00000000000000000 -0.00000000000000000 -0.00000000000000000 -1.00000000000000000 1.00000000000000000 0.00000000000000000 0.00000000000000000 -0.00000000000000000 1.00000000000000000 -0.00000000000000000 10.00000000000000000
2 -17.99999999999999645 -24.00000000000000000 0.00000000000000000 -0.00000000000000000 -0.00000000000000000 -1.00000000000000000 1.00000000000000000 0.00000000000000000 0.00000000000000000 -0.00000000000000000 1.00000000000000000 -0.00000000000000000 10.00000000000000000
2 -17.99999999999999645 -24.00000000000000000 0.00000000000000000 -0.00000000000000000 -0.00000000000000000 -1.00000000000000000 1.00000000000000000 0.00000000000000000 0.00000000000000000 -0.00000000000000000 1.00000000000000000 -0.00000000000000000 10.00000000000000000
2 -17.99999999999999645 -24.00000000000000000 0.00000000000000000 -0.00000000000000000 -0.00000000000000000 -1.00000000000000000 1.00000000000000000 0.00000000000000000 0.00000000000000000 -0.00000000000000000 1.00000000000000000 -0.00000000000000000 10.00000000000000000
2 0.00000000000000000 0.00000000000000000 0.00000000000000000 -0.00000000000000000 -0.00000000000000000 -1.00000000000000000 1.00000000000000000 0.00000000000000000 0.00000000000000000 -0.00000000000000000 1.00000000000000000 -0.00000000000000000 20.00000000000000000
2 0.00000000000000000 0.00000000000000000 0.00000000000000000 -0.00000000000000000 -0.00000000000000000 -1.00000000000000000 1.00000000000000000 0.00000000000000000 0.00000000000000000 -0.00000000000000000 1.00000000000000000 -0.00000000000000000 20.00000000000000000
2 0.00000000000000000 0.00000000000000000 0.00000000000000000 -0.00000000000000000 -0.00000000000000000 -1.00000000000000000 1.00000000000000000 0.00000000000000000 0.00000000000000000 -0.00000000000000000 1.00000000000000000 -0.00000000000000000 20.00000000000000000
2 0.00000000000000000 0.00000000000000000 0.00000000000000000 -0.00000000000000000 -0.00000000000000000 -1.00000000000000000 1.00000000000000000 0.00000000000000000 0.00000000000000000 -0.00000000000000000 1.00000000000000000 -0.00000000000000000 20.00000000000000000
2 0.00000000000000000 0.00000000000000000 0.00000000000000000 -0.00000000000000000 -0.00000000000000000 -1.00000000000000000 1.00000000000000000 0.00000000000000000 0.00000000000000000 -0.00000000000000000 1.00000000000000000 -0.00000000000000000 20.00000000000000000
2 0.00000000000000000 0.00000000000000000 0.00000000000000000 -0.00000000000000000 -0.00000000000000000 -1.00000000000000000 1.00000000000000000 0.00000000000000000 0.00000000000000000 -0.00000000000000000 1.00000000000000000 -0.00000000000000000 20.00000000000000000
2 0.00000000000000000 0.00000000000000000 0.00000000000000000 -0.00000000000000000 -0.00000000000000000 -1.00000000000000000 1.00000000000000000 0.00000000000000000 0.00000000000000000 -0.00000000000000000 1.00000000000000000 -0.00000000000000000 20.00000000000000000
2 0.00000000000000000 0.00000000000000000 0.00000000000000000 -0.00000000000000000 -0.00000000000000000 -1.00000000000000000 1.00000000000000000 0.00000000000000000 0.00000000000000000 -0.00000000000000000 1.00000000000000000 -0.00000000000000000 20.00000000000000000
2 17.99999999999999645 -24.00000000000000000 0.00000000000000000 -0.00000000000000000 -0.00000000000000000 -1.00000000000000000 1.00000000000000000 0.00000000000000000 0.00000000000000000 -0.00000000000000000 1.00000000000000000 -0.00000000000000000 10.00000000000000000
2 17.99999999999999645 -24.00000000000000000 0.00000000000000000 -0.00000000000000000 -0.00000000000000000 -1.00000000000000000 1.00000000000000000 0.00000000000000000 0.00000000000000000 -0.00000000000000000 1.00000000000000000 -0.00000000000000000 10.00000000000000000
2 17.99999999999999645 -24.00000000000000000 0.00000000000000000 -0.00000000000000000 -0.00000000000000000 -1.00000000000000000 1.00000000000000000 0.00000000000000000 0.00000000000000000 -0.00000000000000000 1.00000000000000000 -0.00000000000000000 10.00000000000000000
2 17.99999999999999645 -24.00000000000000000 0.00000000000000000 -0.00000000000000000 -0.00000000000000000 -1.00000000000000000 1.00000000000000000 0.00000000000000000 0.00000000000000000 -0.00000000000000000 1.00000000000000000 -0.00000000000000000 10.00000000000000000
2 37.50000000000000000 -9.00000000000000178 0.00000000000000000 -0.00000000000000000 -0.00000000000000000 -1.00000000000000000 1.00000000000000000 0.00000000000000000 0.00000000000000000 -0.00000000000000000 1.00000000000000000 -0.00000000000000000 5.00000000000000000
2 37.50000000000000000 -9.00000000000000178 0.00000000000000000 -0.00000000000000000 -0.00000000000000000 -1.00000000000000000 1.00000000000000000 0.00000000000000000 0.00000000000000000 -0.00000000000000000 1.00000000000000000 -0.00000000000000000 5.00000000000000000
2 37.50000000000000000 -9.00000000000000178 0.00000000000000000 -0.00000000000000000 -0.00000000000000000 -1.00000000000000000 1.00000000000000000 0.00000000000000000 0.00000000000000000 -0.00000000000000000 1.00000000000000000 -0.00000000000000000 5.00000000000000000
2 37.50000000000000000 -9.00000000000000178 0.00000000000000000 -0.00000000000000000 -0.00000000000000000 -1.00000000000000000 1.00000000000000000 0.00000000000000000 0.00000000000000000 -0.00000000000000000 1.00000000000000000 -0.00000000000000000 5.00000000000000000
1 -37.50000000000000000 14.00000000000000178 0.00000000000000000 0.00000000000000000 1.00000000000000000 0.00000000000000000 1.00000000000000000 0.00000000000000000 0.00000000000000000 0.00000000000000000 0.00000000000000000 -1.00000000000000000 
1 -42.50000000000000000 0.00000000000000000 0.00000000000000000 -1.00000000000000000 0.00000000000000000 0.00000000000000000 0.00000000000000000 1.00000000000000000 0.00000000000000000 0.00000000000000000 0.00000000000000000 -1.00000000000000000 
1 -42.50000000000000000 0.00000000000000000 0.00000000000000000 1.00000000000000000 0.00000000000000000 -0.00000000000000000 0.00000000000000000 -1.00000000000000000 0.00000000000000000 0.00000000000000000 -0.00000000000000000 -1.00000000000000000 
1 -37.50000000000000000 -14.00000000000000000 0.00000000000000000 0.00000000000000000 1.00000000000000000 0.00000000000000000 1.00000000000000000 0.00000000000000000 0.00000000000000000 0.00000000000000000 0.00000000000000000 -1.00000000000000000 
1 37.50000000000000000 -14.00000000000000178 0.00000000000000000 0.00000000000000000 -1.00000000000000000 0.00000000000000000 -1.00000000000000000 0.00000000000000000 0.00000000000000000 -0.00000000000000000 -0.00000000000000000 -1.00000000000000000 
1 42.50000000000000000 0.00000000000000000 0.00000000000000000 1.00000000000000000 0.00000000000000000 -0.00000000000000000 0.00000000000000000 -1.00000000000000000 0.00000000000000000 0.00000000000000000 -0.00000000000000000 -1.00000000000000000 
1 42.50000000000000000 -0.00000000000000075 7.50000000000000000 1.00000000000000000 0.00000000000000000 0.00000000000000000 -0.00000000000000000 0.00000000000000000 1.00000000000000000 0.00000000000000000 -1.00000000000000000 0.00000000000000000 
1 -42.50000000000000000 0.00000000000000043 7.50000000000000000 -1.00000000000000000 -0.00000000000000000 -0.00000000000000000 0.00000000000000000 0.00000000000000000 -1.00000000000000000 0.00000000000000000 -1.00000000000000000 0.00000000000000000 
Triangulations 0

TShapes 92
Ve
0.000000100000000
42.500000000000000 9.000000000000002 0.000000000000000
0 0

0101101
*
Ed
 0.000000100000000 1 1 0
1  1 0 0.000000000000000 15.000000000000000
2  1 1 0 0.000000000000000 15.000000000000000
4 G1 2 0 1 0
0

0101000
+92 5 -92 7 *
Ve
0.000000100000000
37.500000000000000 14.000000000000002 0.000000000000000
0 0

0101101
*
Ed
 0.000000100000000 1 1 0
1  2 0 0.000000000000000 15.000000000000000
2  2 1 0 0.000000000000000 15.000000000000000
4 G1 1 0 3 0
0

0101000
+90 5 -90 7 *
Ed
 0.000000100000000 1 1 0
1  3 0 0.000000000000000 1.570796326794896
2  3 4 10 0.000000000000000 1.570796326794896
2  4 4 12 0.000000000000000 1.570796326794896
2  5 5 15 0.000000000000000 1.570796326794896
2  6 5 17 0.000000000000000 1.570796326794896
2  7 6 20 0.000000000000000 1.570796326794896
2  8 6 22 0.000000000000000 1.570796326794896
2  9 1 23 0.000000000000000 1.570796326794896
2  10 1 24 0.000000000000000 1.570796326794896
0

0101000
+92 0 -90 0 *
Wi

0101100
+91 0 -89 0 -88 5 +88 7 *
Fa
0  0.000000100000000 1 0

0111000
+87 0 *
Ve
0.000000100000001
17.999999999999993 14.000000000000000 0.000000000000000
0 0

0101101
*
Ed
 0.000000100000001 1 1 0
1  4 0 0.000000000000000 15.000000000000000
2  11 7 0 0.000000000000000 15.000000000000000
4 G1 3 0 7 0
0

0101000
+85 5 -85 7 *
Ed
 0.000000100000000 1 1 0
1  5 0 0.000000000000000 19.500000000000007
0

0101000
+90 0 -85 0 *
Wi

0101100
+89 0 -84 0 -83 5 +83 7 *
Fa
0  0.000000100000000 3 0

0111000
+82 0 *
Ve
0.000000100000002
11.999999999999998 16.000000000000000 0.000000000000000
0 0

0101101
*
Ed
 0.000000100000002 1 1 0
1  6 0 0.000000000000000 15.000000000000000
2  12 7 0 0.000000000000000 15.000000000000000
2  13 8 0 0.000000000000000 15.000000000000000
4 G1 7 0 8 0
0

0101000
+80 5 -80 7 *
Ed
 0.000000100000000 1 1 0
1  7 0 4.068887871591405 4.712388980384690
2  14 9 10 4.068887871591405 4.712388980384690
2  15 9 12 4.068887871591405 4.712388980384690
2  16 10 15 4.068887871591405 4.712388980384690
2  17 10 17 4.068887871591405 4.712388980384690
2  18 11 20 4.068887871591405 4.712388980384690
2  19 11 22 4.068887871591405 4.712388980384690
2  20 7 23 4.068887871591405 4.712388980384690
2  21 7 24 4.068887871591405 4.712388980384690
0

0101000
+80 0 -85 0 *
Wi

0101100
+79 0 -84 0 -78 5 +78 7 *
Fa
0  0.000000100000000 7 0

0111000
+77 0 *
Ve
0.000000100000000
42.500000000000000 -9.000000000000004 0.000000000000000
0 0

0101101
*
Ed
 0.000000100000000 1 1 0
1  8 0 -9.000000000000004 9.000000000000002
0

0101000
+75 5 -92 5 *
Ve
0.000000100000002
-0.000000000000001 20.000000000000000 0.000000000000000
0 0

0101101
*
Ed
 0.000000100000000 1 1 0
1  9 0 0.927295218001612 1.570796326794897
2  22 13 10 0.927295218001612 1.570796326794897
2  23 13 12 0.927295218001612 1.570796326794897
2  24 14 15 0.927295218001612 1.570796326794897
2  25 14 17 0.927295218001612 1.570796326794897
2  26 15 20 0.927295218001612 1.570796326794897
2  27 15 22 0.927295218001612 1.570796326794897
2  28 8 23 0.927295218001612 1.570796326794897
2  29 8 24 0.927295218001612 1.570796326794897
0

0101000
+80 0 -73 0 *
Ve
0.000000100000003
-11.999999999999998 16.000000000000000 0.000000000000000
0 0

0101101
*
Ed
 0.000000100000000 1 1 0
1  10 0 1.570796326794897 2.214297435588181
2  30 16 10 1.570796326794897 2.214297435588181
2  31 16 12 1.570796326794897 2.214297435588181
2  32 13 10 1.570796326794897 2.214297435588181
2  33 13 12 1.570796326794897 2.214297435588181
2  34 17 15 1.570796326794897 2.214297435588181
2  35 17 17 1.570796326794897 2.214297435588181
2  36 14 15 1.570796326794897 2.214297435588181
2  37 14 17 1.570796326794897 2.214297435588181
2  38 18 20 1.570796326794897 2.214297435588181
2  39 18 22 1.570796326794897 2.214297435588181
2  40 15 20 1.570796326794897 2.214297435588181
2  41 15 22 1.570796326794897 2.214297435588181
2  42 19 23 1.570796326794897 2.214297435588181
2  43 19 24 1.570796326794897 2.214297435588181
2  44 8 23 1.570796326794897 2.214297435588181
2  45 8 24 1.570796326794897 2.214297435588181
0

0101000
+73 0 -71 0 *
Ve
0.000000100000001
-18.000000000000000 14.000000000000000 0.000000000000000
0 0

0101101
*
Ed
 0.000000100000000 1 1 0
1  11 0 4.712388980384690 5.355890089177974
2  46 20 10 4.712388980384690 5.355890089177974
2  47 20 12 4.712388980384690 5.355890089177974
2  48 21 15 4.712388980384690 5.355890089177974
2  49 21 17 4.712388980384690 5.355890089177974
2  50 22 20 4.712388980384690 5.355890089177974
2  51 22 22 4.712388980384690 5.355890089177974
2  52 23 23 4.712388980384690 5.355890089177974
2  53 23 24 4.712388980384690 5.355890089177974
0

0101000
+69 0 -71 0 *
Ve
0.000000100000000
-37.500000000000000 14.000000000000002 0.000000000000000
0 0

0101101
*
Ed
 0.000000100000000 1 1 0
1  12 0 0.000000000000000 19.500000000000000
0

0101000
+67 0 -69 0 *
Ve
0.000000100000000
-42.500000000000000 9.000000000000002 0.000000000000000
0 0

0101101
*
Ed
 0.000000100000000 1 1 0
1  13 0 1.570796326794897 3.141592653589793
2  54 24 10 1.570796326794897 3.141592653589793
2  55 24 12 1.570796326794897 3.141592653589793
2  56 25 15 1.570796326794897 3.141592653589793
2  57 25 17 1.570796326794897 3.141592653589793
2  58 26 20 1.570796326794897 3.141592653589793
2  59 26 22 1.570796326794897 3.141592653589793
2  60 27 23 1.570796326794897 3.141592653589793
2  61 27 24 1.570796326794897 3.141592653589793
0

0101000
+67 0 -65 0 *
Ve
0.000000100000000
-42.500000000000000 -9.000000000000002 0.000000000000000
0 0

0101101
*
Ed
 0.000000100000000 1 1 0
1  14 0 -9.000000000000002 9.000000000000002
0

0101000
+65 5 -63 5 *
Ve
0.000000100000001
-37.500000000000000 -14.000000000000000 0.000000000000000
0 0

0101101
*
Ed
 0.000000100000000 1 1 0
1  15 0 3.141592653589793 4.712388980384690
2  62 28 10 3.141592653589793 4.712388980384690
2  63 28 12 3.141592653589793 4.712388980384690
2  64 29 15 3.141592653589793 4.712388980384690
2  65 29 17 3.141592653589793 4.712388980384690
2  66 30 20 3.141592653589793 4.712388980384690
2  67 30 22 3.141592653589793 4.712388980384690
2  68 31 23 3.141592653589793 4.712388980384690
2  69 31 24 3.141592653589793 4.712388980384690
0

0101000
+63 0 -61 0 *
Ve
0.000000100000000
-18.000000000000000 -14.000000000000000 0.000000000000000
0 0

0101101
*
Ed
 0.000000100000000 1 1 0
1  16 0 0.000000000000000 19.500000000000000
0

0101000
+61 0 -59 0 *
Ve
0.000000100000001
-12.000000000000000 -15.999999999999996 0.000000000000000
0 0

0101101
*
Ed
 0.000000100000000 1 1 0
1  17 0 0.927295218001613 1.570796326794897
2  70 32 10 0.927295218001613 1.570796326794897
2  71 32 12 0.927295218001613 1.570796326794897
2  72 33 15 0.927295218001613 1.570796326794897
2  73 33 17 0.927295218001613 1.570796326794897
2  74 34 20 0.927295218001613 1.570796326794897
2  75 34 22 0.927295218001613 1.570796326794897
2  76 35 23 0.927295218001613 1.570796326794897
2  77 35 24 0.927295218001613 1.570796326794897
0

0101000
+57 0 -59 0 *
Ve
0.000000100000000
-0.000000000000004 -20.000000000000000 0.000000000000000
0 0

0101101
*
Ed
 0.000000100000000 1 1 0
1  18 0 4.068887871591405 4.712388980384690
2  78 36 10 4.068887871591405 4.712388980384690
2  79 36 12 4.068887871591405 4.712388980384690
2  80 37 15 4.068887871591405 4.712388980384690
2  81 37 17 4.068887871591405 4.712388980384690
2  82 38 20 4.068887871591405 4.712388980384690
2  83 38 22 4.068887871591405 4.712388980384690
2  84 39 23 4.068887871591405 4.712388980384690
2  85 39 24 4.068887871591405 4.712388980384690
0

0101000
+57 0 -55 0 *
Ve
0.000000100000003
11.999999999999996 -16.000000000000000 0.000000000000000
0 0

0101101
*
Ed
 0.000000100000000 1 1 0
1  19 0 4.712388980384690 5.355890089177974
2  86 40 10 4.712388980384690 5.355890089177974
2  87 40 12 4.712388980384690 5.355890089177974
2  88 36 10 4.712388980384690 5.355890089177974
2  89 36 12 4.712388980384690 5.355890089177974
2  90 41 15 4.712388980384690 5.355890089177974
2  91 41 17 4.712388980384690 5.355890089177974
2  92 37 15 4.712388980384690 5.355890089177974
2  93 37 17 4.712388980384690 5.355890089177974
2  94 42 20 4.712388980384690 5.355890089177974
2  95 42 22 4.712388980384690 5.355890089177974
2  96 38 20 4.712388980384690 5.355890089177974
2  97 38 22 4.712388980384690 5.355890089177974
2  98 43 23 4.712388980384690 5.355890089177974
2  99 43 24 4.712388980384690 5.355890089177974
2  100 39 23 4.712388980384690 5.355890089177974
2  101 39 24 4.712388980384690 5.355890089177974
0

0101000
+55 0 -53 0 *
Ve
0.000000100000001
17.999999999999993 -14.000000000000000 0.000000000000000
0 0

0101101
*
Ed
 0.000000100000000 1 1 0
1  20 0 1.570796326794897 2.214297435588181
2  102 44 10 1.570796326794897 2.214297435588181
2  103 44 12 1.570796326794897 2.214297435588181
2  104 45 15 1.570796326794897 2.214297435588181
2  105 45 17 1.570796326794897 2.214297435588181
2  106 46 20 1.570796326794897 2.214297435588181
2  107 46 22 1.570796326794897 2.214297435588181
2  108 47 23 1.570796326794897 2.214297435588181
2  109 47 24 1.570796326794897 2.214297435588181
0

0101000
+51 0 -53 0 *
Ve
0.000000100000000
37.500000000000000 -14.000000000000002 0.000000000000000
0 0

0101101
*
Ed
 0.000000100000000 1 1 0
1  21 0 0.000000000000000 19.500000000000007
0

0101000
+49 0 -51 0 *
Ed
 0.000000100000000 1 1 0
1  22 0 4.712388980384690 6.283185307179586
2  110 48 10 4.712388980384690 6.283185307179586
2  111 48 12 4.712388980384690 6.283185307179586
2  112 49 15 4.712388980384690 6.283185307179586
2  113 49 17 4.712388980384690 6.283185307179586
2  114 50 20 4.712388980384690 6.283185307179586
2  115 50 22 4.712388980384690 6.283185307179586
2  116 51 23 4.712388980384690 6.283185307179586
2  117 51 24 4.712388980384690 6.283185307179586
0

0101000
+49 0 -75 0 *
Wi

0101000
+74 23 +88 0 +83 0 -78 0 +72 0 +70 0 -68 0 -66 0 +64 0 +62 23 
+60 0 +58 0 -56 0 +54 0 +52 0 -50 0 -48 0 +47 0 *
Fa
0  0.000000100000000 12 0

0111000
+46 26 *
Ed
 0.000000100000001 1 1 0
1  23 0 0.000000000000000 15.000000000000000
2  118 23 0 0.000000000000000 15.000000000000000
4 G1 23 0 52 0
0

0101000
+69 5 -69 7 *
Ed
 0.000000100000003 1 1 0
1  24 0 0.000000000000000 15.000000000000000
2  119 19 0 0.000000000000000 15.000000000000000
2  120 23 0 0.000000000000000 15.000000000000000
4 G1 19 0 23 0
2  121 8 0 0.000000000000000 15.000000000000000
0

0101000
+71 5 -71 7 *
Wi

0101100
+44 0 -43 0 -68 5 +68 7 *
Fa
0  0.000000100000000 23 0

0111000
+42 0 *
Ed
 0.000000100000000 1 1 0
1  25 0 0.000000000000000 15.000000000000000
2  122 27 0 0.000000000000000 15.000000000000000
4 G1 52 0 27 0
0

0101000
+67 5 -67 7 *
Wi

0101100
+40 0 -44 0 -66 5 +66 7 *
Fa
0  0.000000100000000 52 0

0111000
+39 0 *
Ed
 0.000000100000000 1 1 0
1  26 0 0.000000000000000 15.000000000000000
2  123 27 0 0.000000000000000 15.000000000000000
4 G1 27 0 53 0
0

0101000
+65 5 -65 7 *
Wi

0101100
+40 0 -37 0 -64 5 +64 7 *
Fa
0  0.000000100000000 27 0

0111000
+36 0 *
Ed
 0.000000100000000 1 1 0
1  27 0 0.000000000000000 15.000000000000000
2  124 31 0 0.000000000000000 15.000000000000000
4 G1 54 0 31 0
0

0101000
+63 5 -63 7 *
Ed
 0.000000100000001 1 1 0
1  28 0 0.000000000000000 15.000000000000000
2  125 31 0 0.000000000000000 15.000000000000000
4 G1 31 0 55 0
0

0101000
+61 5 -61 7 *
Wi

0101100
+34 0 -33 0 -60 5 +60 7 *
Fa
0  0.000000100000000 31 0

0111000
+32 0 *
Ed
 0.000000100000000 1 1 0
1  29 0 0.000000000000000 15.000000000000000
2  126 35 0 0.000000000000000 15.000000000000000
4 G1 55 0 35 0
0

0101000
+59 5 -59 7 *
Wi

0101100
+33 0 -30 0 -58 5 +58 7 *
Fa
0  0.000000100000000 55 0

0111000
+29 0 *
Ed
 0.000000100000001 1 1 0
1  30 0 0.000000000000000 15.000000000000000
2  127 35 0 0.000000000000000 15.000000000000000
2  128 39 0 0.000000000000000 15.000000000000000
4 G1 35 0 39 0
0

0101000
+57 5 -57 7 *
Wi

0101100
+27 0 -30 0 -56 5 +56 7 *
Fa
0  0.000000100000000 35 0

0111000
+26 0 *
Ed
 0.000000100000001 1 1 0
1  31 0 0.000000000000000 15.000000000000000
2  129 47 0 0.000000000000000 15.000000000000000
4 G1 47 0 56 0
0

0101000
+51 5 -51 7 *
Ed
 0.000000100000003 1 1 0
1  32 0 0.000000000000000 15.000000000000000
2  130 43 0 0.000000000000000 15.000000000000000
2  131 47 0 0.000000000000000 15.000000000000000
4 G1 43 0 47 0
2  132 39 0 0.000000000000000 15.000000000000000
0

0101000
+53 5 -53 7 *
Wi

0101100
+24 0 -23 0 -50 5 +50 7 *
Fa
0  0.000000100000000 47 0

0111000
+22 0 *
Ed
 0.000000100000000 1 1 0
1  33 0 0.000000000000000 15.000000000000000
2  133 51 0 0.000000000000000 15.000000000000000
4 G1 56 0 51 0
0

0101000
+49 5 -49 7 *
Wi

0101100
+20 0 -24 0 -48 5 +48 7 *
Fa
0  0.000000100000000 56 0

0111000
+19 0 *
Ed
 0.000000100000000 1 1 0
1  34 0 0.000000000000000 15.000000000000000
2  134 51 0 0.000000000000000 15.000000000000000
4 G1 51 0 57 0
0

0101000
+75 5 -75 7 *
Wi

0101100
+20 0 -17 0 -47 5 +47 7 *
Fa
0  0.000000100000000 51 0

0111000
+16 0 *
Ed
 0.000000100000000 1 1 0
1  35 0 -9.000000000000002 9.000000000000002
0

0101000
+63 7 -65 7 *
Ed
 0.000000100000000 1 1 0
1  36 0 -9.000000000000002 9.000000000000004
0

0101000
+92 7 -75 7 *
Wi

0101000
+88 0 +83 0 -78 0 +72 0 +70 0 -68 0 -66 0 +64 0 -14 24 +60 0 
+58 0 -56 0 +54 0 +52 0 -50 0 -48 0 +47 0 -13 24 *
Fa
0  0.000000100000000 12 0

0111000
+12 26 *
Wi

0101000
+91 0 +13 0 -17 0 +74 0 *
Fa
0  0.000000100000000 58 0

0111000
+10 0 *
Wi

0101000
-37 0 +62 0 +34 0 +14 0 *
Fa
0  0.000000100000000 59 0

0111000
+8 0 *
Wi

0101100
-43 0 -70 5 -72 5 +79 0 +72 7 +70 7 *
Fa
0  0.000000100000000 8 0

0111000
+6 0 *
Wi

0101100
-23 0 -52 5 -54 5 +27 0 +54 7 +52 7 *
Fa
0  0.000000100000000 39 0

0111000
+4 0 *
Sh

0101000
-86 0 -81 0 +76 0 -45 25 +41 0 +38 0 -35 0 -31 0 -28 0 +25 0 
+21 0 +18 0 -15 0 +11 27 +9 0 +7 0 -5 0 -3 0 *
So

1100000
+2 0 *

+1 1 