
CASCADE Topology V1, (c) Matra-Datavision
Locations 9
1
1.000000000000000 0.000000000000000 0.000000000000000 0.000000000000000 
0.000000000000000 1.000000000000000 0.000000000000000 0.000000000000000 
0.000000000000000 0.000000000000000 1.000000000000000 0.000000000000000 
1
1.000000000000000 0.000000000000000 0.000000000000000 0.000000000000000 
0.000000000000000 1.000000000000000 0.000000000000000 0.000000000000000 
0.000000000000000 0.000000000000000 1.000000000000000 15.000000000000000 
1
1.000000000000000 0.000000000000000 0.000000000000000 0.000000000000000 
0.000000000000000 1.000000000000000 0.000000000000000 0.000000000000000 
0.000000000000000 0.000000000000000 1.000000000000000 0.000000000000000 
2  1 1 2 1 3 -1 0
2  3 1 2 -1 1 -1 0
1
1.000000000000000 0.000000000000000 0.000000000000000 -0.000000000000000 
0.000000000000000 1.000000000000000 0.000000000000000 -0.000000000000000 
0.000000000000000 0.000000000000000 1.000000000000000 -8006.924728087056792 
2  6 -1 3 1 2 -1 1 -1 0
2  3 -1 0
2  1 1 2 1 0
Curve2ds 24
1 0.00000000000000000 0.00000000000000000 1.00000000000000000 0.00000000000000000 
1 0.00000000000000000 -8006.92472808705679199 1.00000000000000000 0.00000000000000000 
1 2.00000000000000000 0.00000000000000000 0.00000000000000000 -1.00000000000000000 
1 0.00000000000000000 0.00000000000000000 0.00000000000000000 -1.00000000000000000 
8 -1.49999999999999956 0.50000000000000044
1 0.50000000000000044 -1.00000000000000000 -1.00000000000000000 0.00000000000000000 
8 -1.49999999999999956 0.50000000000000044
1 -0.50000000000000033 -16.50000000000000000 -1.00000000000000000 0.00000000000000000 
1 0.00000000000000000 0.00000000000000000 0.00000000000000000 -1.00000000000000000 
1 33.00000000000000000 0.00000000000000000 0.00000000000000000 -1.00000000000000000 
1 0.00000000000000000 0.00000000000000000 1.00000000000000000 0.00000000000000000 
1 0.00000000000000000 -8006.92472808705679199 1.00000000000000000 0.00000000000000000 
1 0.00000000000000000 0.00000000000000000 1.00000000000000000 0.00000000000000000 
1 0.00000000000000000 -8006.92472808705679199 1.00000000000000000 0.00000000000000000 
1 0.00000000000000000 0.00000000000000000 1.00000000000000000 0.00000000000000000 
1 0.00000000000000000 -8006.92472808705679199 1.00000000000000000 0.00000000000000000 
1 33.00000000000000000 0.00000000000000000 0.00000000000000000 -1.00000000000000000 
1 0.00000000000000000 0.00000000000000000 0.00000000000000000 -1.00000000000000000 
8 -24.75000000000000000 8.25000000000000000
1 8.25000000000000000 -1.00000000000000000 -1.00000000000000000 0.00000000000000000 
8 -24.75000000000000000 8.25000000000000000
1 0.99999999999999922 -8.25000000000000000 0.00000000000000000 -1.00000000000000000 
8 -24.75000000000000000 8.25000000000000000
1 8.25000000000000000 -1.00000000000000000 -1.00000000000000000 0.00000000000000000 
8 -24.75000000000000000 8.25000000000000000
1 -1.00000000000000067 8.25000000000000000 0.00000000000000000 1.00000000000000000 
8 -1.50000000000000044 0.49999999999999967
1 0.49999999999999967 -1.00000000000000000 -1.00000000000000000 0.00000000000000000 
8 -1.50000000000000044 0.49999999999999967
1 0.49999999999999956 16.50000000000000000 1.00000000000000000 0.00000000000000000 
1 2.00000000000000000 0.00000000000000000 0.00000000000000000 -1.00000000000000000 
1 0.00000000000000000 0.00000000000000000 0.00000000000000000 -1.00000000000000000 
Curves 12
1 -1.00000000000000000 -16.50000000000000000 0.00000000000000000 1.00000000000000000 0.00000000000000000 0.00000000000000000 
1 1.00000000000000000 -16.50000000000000000 15.00000000000000000 -0.00000000000000000 -0.00000000000000000 -1.00000000000000000 
1 -0.49999999999999961 -16.50000000000000000 14.00000000000000000 -1.00000000000000000 0.00000000000000000 0.00000000000000000 
1 -1.00000000000000000 -16.50000000000000000 15.00000000000000000 -0.00000000000000000 -0.00000000000000000 -1.00000000000000000 
1 1.00000000000000000 -16.50000000000000000 0.00000000000000000 0.00000000000000000 1.00000000000000000 0.00000000000000000 
1 1.00000000000000000 16.50000000000000000 0.00000000000000000 -1.00000000000000000 0.00000000000000000 0.00000000000000000 
1 -1.00000000000000000 16.50000000000000000 0.00000000000000000 0.00000000000000000 -1.00000000000000000 0.00000000000000000 
1 1.00000000000000000 16.50000000000000000 15.00000000000000000 -0.00000000000000000 -0.00000000000000000 -1.00000000000000000 
1 1.00000000000000000 -8.25000000000000000 14.00000000000000000 0.00000000000000000 -1.00000000000000000 0.00000000000000000 
1 -1.00000000000000000 8.25000000000000000 14.00000000000000000 0.00000000000000000 1.00000000000000000 -0.00000000000000000 
1 0.50000000000000033 16.50000000000000000 14.00000000000000000 1.00000000000000000 -0.00000000000000000 0.00000000000000000 
1 -1.00000000000000000 16.50000000000000000 15.00000000000000000 -0.00000000000000000 -0.00000000000000000 -1.00000000000000000 
Polygon3D 0
PolygonOnTriangulations 0
Surfaces 6
1 -1.00000000000000000 -16.50000000000000000 15.00000000000000000 0.00000000000000000 -1.00000000000000000 0.00000000000000000 1.00000000000000000 0.00000000000000000 0.00000000000000000 -0.00000000000000000 0.00000000000000000 1.00000000000000000 
1 1.00000000000000000 -16.50000000000000000 15.00000000000000000 1.00000000000000000 0.00000000000000000 0.00000000000000000 -0.00000000000000000 1.00000000000000000 0.00000000000000000 0.00000000000000000 -0.00000000000000000 1.00000000000000000 
10 -1000.73828657482033577 1000.73828657482033577 -978.59704517664317791 978.59704517664317791
1 0.00000000000000077 -0.00000000000000006 14.00000000000000000 0.00000000000000000 0.00000000000000000 1.00000000000000000 1.00000000000000000 0.00000000000000000 0.00000000000000000 0.00000000000000000 1.00000000000000000 0.00000000000000000 
1 -1.00000000000000000 16.50000000000000000 15.00000000000000000 -1.00000000000000000 0.00000000000000000 0.00000000000000000 0.00000000000000000 -1.00000000000000000 0.00000000000000000 0.00000000000000000 0.00000000000000000 1.00000000000000000 
1 0.00000000000000000 0.00000000000000000 15.00000000000000000 0.00000000000000000 0.00000000000000000 1.00000000000000000 1.00000000000000000 0.00000000000000000 -0.00000000000000000 -0.00000000000000000 1.00000000000000000 0.00000000000000000 
1 1.00000000000000000 16.50000000000000000 15.00000000000000000 0.00000000000000000 1.00000000000000000 -0.00000000000000000 -1.00000000000000000 0.00000000000000000 0.00000000000000000 0.00000000000000000 0.00000000000000000 1.00000000000000000 
Triangulations 0

TShapes 34
Ve
0.000000100000000
-1.000000000000000 -16.500000000000000 0.000000000000000
0 0

0101101
*
Ve
0.000000100000000
1.000000000000000 -16.500000000000000 0.000000000000000
0 0

0101101
*
Ed
 0.000000100000000 1 1 0
1  1 0 0.000000000000000 2.000000000000000
2  1 1 5 0.000000000000000 2.000000000000000
2  2 1 7 0.000000000000000 2.000000000000000
0

0101000
+34 0 -33 0 *
Ve
0.000000150000000
1.000000000000000 -16.500000000000000 14.000000000000000
0 0

0101101
*
Ed
 0.000000100000000 1 1 0
1  2 0 0.000000000000000 1.000000000000000
2  3 1 0 0.000000000000000 1.000000000000000
2  4 2 0 0.000000000000000 1.000000000000000
0

0101000
+33 4 -31 0 *
Ve
0.000000150000000
-1.000000000000000 -16.500000000000000 14.000000000000000
0 0

0101101
*
Ed
 0.000000150000000 1 1 0
1  3 0 -1.500000000000000 0.500000000000000
2  5 1 0 -1.500000000000000 0.500000000000000
2  6 3 0 -1.500000000000000 0.500000000000000
0

0101000
+31 0 -29 0 *
Ed
 0.000000100000000 1 1 0
1  4 0 0.000000000000000 1.000000000000000
2  7 1 0 0.000000000000000 1.000000000000000
2  8 4 0 0.000000000000000 1.000000000000000
0

0101000
+34 4 -29 0 *
Wi

0101100
-32 4 -30 0 -28 0 +27 0 *
Fa
0  0.000000100000000 1 0

0101000
+26 0 *
Ve
0.000000100000000
1.000000000000000 16.500000000000000 0.000000000000000
0 0

0101101
*
Ed
 0.000000100000000 1 1 0
1  5 0 0.000000000000000 33.000000000000000
2  9 2 5 0.000000000000000 33.000000000000000
2  10 2 7 0.000000000000000 33.000000000000000
0

0101000
+33 0 -24 0 *
Ve
0.000000100000000
-1.000000000000000 16.500000000000000 0.000000000000000
0 0

0101101
*
Ed
 0.000000100000000 1 1 0
1  6 0 0.000000000000000 2.000000000000000
2  11 6 5 0.000000000000000 2.000000000000000
2  12 6 7 0.000000000000000 2.000000000000000
0

0101000
+24 0 -22 0 *
Ed
 0.000000100000000 1 1 0
1  7 0 0.000000000000000 33.000000000000000
2  13 4 5 0.000000000000000 33.000000000000000
2  14 4 7 0.000000000000000 33.000000000000000
0

0101000
+22 0 -34 0 *
Wi

0101100
+32 0 +23 0 +21 0 +20 0 *
Fa
0  0.000000100000000 5 0

0101000
+19 9 *
Ve
0.000000150000000
1.000000000000000 16.500000000000000 14.000000000000000
0 0

0101101
*
Ed
 0.000000100000000 1 1 0
1  8 0 0.000000000000000 1.000000000000000
2  15 2 0 0.000000000000000 1.000000000000000
2  16 6 0 0.000000000000000 1.000000000000000
0

0101000
+24 4 -17 0 *
Ed
 0.000000150000000 1 1 0
1  9 0 -24.750000000000000 8.250000000000000
2  17 2 0 -24.750000000000000 8.250000000000000
2  18 3 0 -24.750000000000000 8.250000000000000
0

0101000
+17 0 -31 0 *
Wi

0101100
-23 4 -16 0 -15 0 +30 0 *
Fa
0  0.000000100000000 2 0

0101000
+14 0 *
Ve
0.000000150000000
-1.000000000000000 16.500000000000000 14.000000000000000
0 0

0101101
*
Ed
 0.000000150000000 1 1 0
1  10 0 -24.750000000000000 8.250000000000000
2  19 4 0 -24.750000000000000 8.250000000000000
2  20 3 0 -24.750000000000000 8.250000000000000
0

0101000
+29 0 -12 0 *
Ed
 0.000000150000000 1 1 0
1  11 0 -1.500000000000000 0.500000000000000
2  21 6 0 -1.500000000000000 0.500000000000000
2  22 3 0 -1.500000000000000 0.500000000000000
0

0101000
+12 0 -17 0 *
Wi

0101100
-28 0 -11 0 -10 0 -15 0 *
Fa
0  0.000000100000000 3 0

0101000
+9 0 *
Ed
 0.000000100000000 1 1 0
1  12 0 0.000000000000000 1.000000000000000
2  23 6 0 0.000000000000000 1.000000000000000
2  24 4 0 0.000000000000000 1.000000000000000
0

0101000
+22 4 -12 0 *
Wi

0101100
-20 4 -27 0 -11 0 +7 0 *
Fa
0  0.000000100000000 4 0

0101000
+6 0 *
Wi

0101100
-21 4 -7 0 -10 0 +16 0 *
Fa
0  0.000000100000000 6 0

0101000
+4 0 *
Sh

0101100
+25 0 +18 8 +13 0 -8 0 +5 0 +3 0 *
So

1100000
+2 0 *

+1 0 